<?xml version="1.0" encoding="utf-8"?>
<!-- Generator: Adobe Illustrator 16.0.0, SVG Export Plug-In . SVG Version: 6.00 Build 0)  -->
<!DOCTYPE svg PUBLIC "-//W3C//DTD SVG 1.1//EN" "http://www.w3.org/Graphics/SVG/1.1/DTD/svg11.dtd">
<svg version="1.1" id="Layer_1" xmlns="http://www.w3.org/2000/svg" xmlns:xlink="http://www.w3.org/1999/xlink" x="0px" y="0px"
	 width="128px" height="128px" viewBox="0 0 128 128" enableBackground="new 0 0 128 128" xml:space="preserve">
<path fill="#010101" d="M41.069,97.688c-8.993-4.053-16.718-5.572-25.457-4.938V30.945c0-0.506-0.253-0.888-0.633-1.14
	c-0.506-0.253-1.013-0.126-1.393,0.254c-0.633,0.634-1.267,1.139-1.899,1.773c-0.254,0.254-0.381,0.633-0.381,0.887v64.843
	c0,0.381,0.254,0.634,0.381,1.015c0.253,0.253,0.633,0.253,1.012,0.253c9.119-1.646,18.238-1.14,27.61,1.393h0.253
	c0.506,0,1.013-0.253,1.14-0.759c0.254-0.889,0-1.522-0.633-1.773V97.688z"/>
<path fill="#010101" d="M36.382,102.5c-9.752-2.026-19.25-1.898-28.243,0.255V39.304c0-0.634-0.633-1.267-1.266-1.267
	c-0.38,0-0.76,0.253-1.014,0.506c-0.126,0.126-0.379,0.254-0.633,0.506c-0.634,0.506-1.013,0.76-1.267,1.013
	c-0.254,0.254-0.254,0.506-0.254,0.76v66.997c0,0.379,0.254,0.76,0.506,1.013c0.253,0.255,0.506,0.255,0.76,0.255
	c0.126,0,0.254,0,0.379-0.128c11.652-3.419,20.771-4.686,30.776-4.179c0.633,0,1.14-0.379,1.267-1.013
	c0.002-0.634-0.506-1.139-1.012-1.266V102.5z"/>
<path fill="#010101" d="M20.172,18.786c-0.76,0-1.393,0.634-1.393,1.267v68.01c0,0.254,0.125,0.634,0.379,0.888
	c0.254,0.253,0.634,0.379,0.887,0.379h0.127c13.171,0,27.989,6.459,40.654,17.73c0.253,0.254,0.506,0.254,0.76,0.254
	c0.254,0,0.379,0,0.506-0.126c0.506-0.253,0.633-0.634,0.633-1.141V37.911c0-0.38-0.253-0.633-0.379-0.887
	C49.3,25.5,33.976,18.786,20.172,18.786L20.172,18.786z"/>
<path fill="#010101" d="M115.031,98.574c0.381,0.128,0.634,0,1.013-0.253c0.255-0.253,0.381-0.634,0.381-1.014V32.591
	c0-0.38-0.254-0.633-0.381-0.887c-0.632-0.634-1.266-1.139-1.899-1.773c-0.379-0.254-0.887-0.38-1.393-0.254
	c-0.507,0.126-0.634,0.634-0.634,1.14V92.62c-8.738-0.632-16.464,0.889-25.455,4.94c-0.634,0.253-0.889,1.013-0.634,1.519
	c0.253,0.507,0.634,0.761,1.139,0.761h0.254C96.921,97.435,105.914,96.929,115.031,98.574L115.031,98.574z"/>
<path fill="#010101" d="M123.643,40.189c-0.253-0.253-0.632-0.633-1.266-1.013c-0.254-0.253-0.506-0.379-0.634-0.506
	c-0.254-0.253-0.633-0.505-1.014-0.505c-0.634,0-1.267,0.633-1.267,1.266v63.324c-8.992-2.152-18.618-2.278-28.243-0.253
	c-0.632,0.126-1.013,0.634-1.013,1.393c0.126,0.634,0.634,1.013,1.268,1.013c9.878-0.505,19.123,0.761,30.775,4.181
	c0.126,0,0.253,0.126,0.379,0.126c0.255,0,0.507-0.126,0.76-0.253c0.254-0.255,0.506-0.634,0.506-1.015V40.95
	C124.023,40.569,123.897,40.443,123.643,40.189L123.643,40.189z"/>
<path fill="#010101" d="M107.686,89.329c0.254,0,0.634-0.126,0.887-0.38c0.254-0.253,0.381-0.633,0.381-0.887v-68.01
	c0-0.633-0.634-1.267-1.268-1.267h-0.126c-13.805,0-29.129,6.712-42.174,18.363c-0.254,0.254-0.38,0.634-0.38,0.888v68.009
	c0,0.507,0.254,0.889,0.633,1.14c0.255,0.128,0.255,0.128,0.506,0.128c0.255,0,0.634-0.128,0.761-0.255
	C79.57,95.788,94.388,89.203,107.686,89.329L107.686,89.329z"/>
</svg>
