<?xml version="1.0" encoding="utf-8"?>
<!-- Generator: Adobe Illustrator 16.0.0, SVG Export Plug-In . SVG Version: 6.00 Build 0)  -->
<!DOCTYPE svg PUBLIC "-//W3C//DTD SVG 1.1//EN" "http://www.w3.org/Graphics/SVG/1.1/DTD/svg11.dtd">
<svg version="1.1" id="Layer_1" xmlns="http://www.w3.org/2000/svg" xmlns:xlink="http://www.w3.org/1999/xlink" x="0px" y="0px"
	 width="128px" height="128px" viewBox="0 0 128 128" enable-background="new 0 0 128 128" xml:space="preserve">
<path d="M103.091,114.145v-0.031c-0.013,0.012-0.026,0.021-0.039,0.031H103.091z"/>
<linearGradient id="SVGID_1_2" gradientUnits="userSpaceOnUse" x1="64.2495" y1="-1.249" x2="64.2495" y2="140.4491">
	<stop  offset="0.2857" style="stop-color:#000C1F"/>
	<stop  offset="0.5265" style="stop-color:#3D516C"/>
	<stop  offset="0.7092" style="stop-color:#146E98"/>
</linearGradient>
<path fill="url(#SVGID_1_2)" d="M64.25,0.584C29.226,0.584,0.833,28.977,0.833,64c0,12.042,3.356,23.3,9.185,32.89l14.772-14.772
	l4.937,4.937V74.763c4.112,6.17,11.242,10.418,19.33,10.418h0.001c4.524,0,8.638-1.371,12.202-3.563h28.241v-3.84H66.059
	c2.74-2.879,4.66-6.58,5.621-10.557h17.822v-3.838H72.229v-1.372c0-3.291-0.686-6.444-1.92-9.187h19.193v-3.839H68.115
	c-4.249-6.032-11.105-10.008-19.056-10.008c-8.089,0-15.218,4.25-19.332,10.557V13.889h45.653v26.46h26.459v73.761H29.728V87.068
	l-15.67,15.672c11.598,15.004,29.76,24.677,50.192,24.677c35.024,0,63.417-28.393,63.417-63.417S99.273,0.584,64.25,0.584z
	 M49.058,42.679c7.952,0,14.808,4.936,17.823,11.791h-20.29v6.992l21.798,0.001v0.411c0,2.194-0.41,4.388-1.096,6.308H46.591v6.992
	h16.452v0.135c-3.564,3.703-8.5,6.033-13.985,6.033c-10.694,0-19.331-8.637-19.331-19.332
	C29.727,51.317,38.364,42.679,49.058,42.679z M79.219,36.237V18.414l17.822,17.823H79.219z"/>
<polygon points="29.735,87.062 29.728,87.055 29.728,87.068 "/>
</svg>
